<svg xmlns="http://www.w3.org/2000/svg" xmlns:svg="http://www.w3.org/2000/svg" id="svg50" width="256" height="148" version="1.1"><metadata id="metadata54"/><defs id="defs26"><clipPath id="c"><path id="path2" fill="#d9b88d" stroke-width="14.045" d="M24.445 2.335c18.667 3.11 68.443 3.11 87.11 0 6.8-1.133 15.555 0 12.443 6.222 0 0-6.222 9.333-6.222 21.777s6.222 21.777 6.222 21.777c3.112 6.222-5.643 7.355-12.443 6.222-18.667-3.11-68.443-3.11-87.11 0-6.8 1.133-15.555 0-12.444-6.222 0 0 6.222-12.444 6.222-21.777 0-12.444-6.222-21.777-6.222-21.777-3.11-6.222 5.645-7.355 12.444-6.222z"/></clipPath><clipPath id="d"><path id="path5" fill="#d9b88d" stroke-width="14.045" d="M24.445 2.335c18.667 3.11 68.443 3.11 87.11 0 6.8-1.133 15.555 0 12.443 6.222 0 0-6.222 9.333-6.222 21.777s6.222 21.777 6.222 21.777c3.112 6.222-5.643 7.355-12.443 6.222-18.667-3.11-68.443-3.11-87.11 0-6.8 1.133-15.555 0-12.444-6.222 0 0 6.222-12.444 6.222-21.777 0-12.444-6.222-21.777-6.222-21.777-3.11-6.222 5.645-7.355 12.444-6.222z"/></clipPath><clipPath id="e"><path id="path8" fill="#d9b88d" stroke-width="14.045" d="M24.445 2.335c18.667 3.11 68.443 3.11 87.11 0 6.8-1.133 15.555 0 12.443 6.222 0 0-6.222 9.333-6.222 21.777s6.222 21.777 6.222 21.777c3.112 6.222-5.643 7.355-12.443 6.222-18.667-3.11-68.443-3.11-87.11 0-6.8 1.133-15.555 0-12.444-6.222 0 0 6.222-12.444 6.222-21.777 0-12.444-6.222-21.777-6.222-21.777-3.11-6.222 5.645-7.355 12.444-6.222z"/></clipPath><clipPath id="f"><path id="path11" fill="#d9b88d" stroke-width="14.045" d="M24.445 2.335c18.667 3.11 68.443 3.11 87.11 0 6.8-1.133 15.555 0 12.443 6.222 0 0-6.222 9.333-6.222 21.777s6.222 21.777 6.222 21.777c3.112 6.222-5.643 7.355-12.443 6.222-18.667-3.11-68.443-3.11-87.11 0-6.8 1.133-15.555 0-12.444-6.222 0 0 6.222-12.444 6.222-21.777 0-12.444-6.222-21.777-6.222-21.777-3.11-6.222 5.645-7.355 12.444-6.222z"/></clipPath><clipPath id="g"><path id="path14" fill="#d9b88d" stroke-width="14.045" d="M24.445 2.335c18.667 3.11 68.443 3.11 87.11 0 6.8-1.133 15.555 0 12.443 6.222 0 0-6.222 9.333-6.222 21.777s6.222 21.777 6.222 21.777c3.112 6.222-5.643 7.355-12.443 6.222-18.667-3.11-68.443-3.11-87.11 0-6.8 1.133-15.555 0-12.444-6.222 0 0 6.222-12.444 6.222-21.777 0-12.444-6.222-21.777-6.222-21.777-3.11-6.222 5.645-7.355 12.444-6.222z"/></clipPath><clipPath id="h"><path id="path17" fill="#d9b88d" stroke-width="14.045" d="M24.445 2.335c18.667 3.11 68.443 3.11 87.11 0 6.8-1.133 15.555 0 12.443 6.222 0 0-6.222 9.333-6.222 21.777s6.222 21.777 6.222 21.777c3.112 6.222-5.643 7.355-12.443 6.222-18.667-3.11-68.443-3.11-87.11 0-6.8 1.133-15.555 0-12.444-6.222 0 0 6.222-12.444 6.222-21.777 0-12.444-6.222-21.777-6.222-21.777-3.11-6.222 5.645-7.355 12.444-6.222z"/></clipPath><clipPath id="b"><path id="path20" fill="#d9b88d" stroke-width="14.965" d="M40 126.167c19.889 3.315 45.482 3.315 65.372 0 7.245-1.207 16.572 0 13.257 6.63 0 0-6.629 9.944-6.629 23.203 0 13.259 6.63 23.203 6.63 23.203 3.314 6.63-6.013 7.836-13.258 6.63-19.89-3.315-45.483-3.315-65.372 0-7.245 1.206-16.573 0-13.259-6.63 0 0 6.63-13.259 6.63-23.203 0-13.259-6.63-23.203-6.63-23.203-3.314-6.63 6.014-7.837 13.259-6.63z"/></clipPath><clipPath id="a"><path id="path23" fill="#d9b88d" stroke-width="14.965" d="M40 126.167c19.889 3.315 45.482 3.315 65.372 0 7.245-1.207 16.572 0 13.257 6.63 0 0-6.629 9.944-6.629 23.203 0 13.259 6.63 23.203 6.63 23.203 3.314 6.63-6.013 7.836-13.258 6.63-19.89-3.315-45.483-3.315-65.372 0-7.245 1.206-16.573 0-13.259-6.63 0 0 6.63-13.259 6.63-23.203 0-13.259-6.63-23.203-6.63-23.203-3.314-6.63 6.014-7.837 13.259-6.63z"/></clipPath></defs><g style="fill:#8e6530;stroke:#191919;stroke-width:12;stroke-opacity:.57599996" id="g38"><path style="stroke-width:9.97999954" id="path28" d="m 40,126.167 c 19.889,3.315 45.482,3.315 65.372,0 7.245,-1.207 16.572,0 13.257,6.63 0,0 -6.629,9.944 -6.629,23.203 0,13.259 6.63,23.203 6.63,23.203 3.314,6.63 -6.013,7.836 -13.258,6.63 -19.89,-3.315 -45.483,-3.315 -65.372,0 -7.245,1.206 -16.573,0 -13.259,-6.63 0,0 6.63,-13.259 6.63,-23.203 0,-13.259 -6.63,-23.203 -6.63,-23.203 -3.314,-6.63 6.014,-7.837 13.259,-6.63 z" clip-path="url(#a)" transform="matrix(1.20246,0,0,1.20246,-31.23,-149.966)"/><path style="stroke-width:9.97999954" id="path30" d="m 40,126.167 c 19.889,3.315 45.482,3.315 65.372,0 7.245,-1.207 16.572,0 13.257,6.63 0,0 -6.629,9.944 -6.629,23.203 0,13.259 6.63,23.203 6.63,23.203 3.314,6.63 -6.013,7.836 -13.258,6.63 -19.89,-3.315 -45.483,-3.315 -65.372,0 -7.245,1.206 -16.573,0 -13.259,-6.63 0,0 6.63,-13.259 6.63,-23.203 0,-13.259 -6.63,-23.203 -6.63,-23.203 -3.314,-6.63 6.014,-7.837 13.259,-6.63 z" clip-path="url(#b)" transform="matrix(1.20246,0,0,1.20246,-31.23,-77.819)"/><g style="stroke-width:9.36600018" id="g36"><path id="path32" d="m 24.445,2.335 c 18.667,3.11 68.443,3.11 87.11,0 6.8,-1.133 15.555,0 12.443,6.222 0,0 -6.222,9.333 -6.222,21.777 0,12.444 6.222,21.777 6.222,21.777 3.112,6.222 -5.643,7.355 -12.443,6.222 -18.667,-3.11 -68.443,-3.11 -87.11,0 -6.8,1.133 -15.555,0 -12.444,-6.222 0,0 6.222,-12.444 6.222,-21.777 C 18.223,17.89 12.001,8.557 12.001,8.557 8.891,2.335 17.646,1.202 24.445,2.335 Z" clip-path="url(#c)" transform="matrix(0,1.28119,-1.28119,0,186.287,-12.941)"/><path id="path34" d="m 24.445,2.335 c 18.667,3.11 68.443,3.11 87.11,0 6.8,-1.133 15.555,0 12.443,6.222 0,0 -6.222,9.333 -6.222,21.777 0,12.444 6.222,21.777 6.222,21.777 3.112,6.222 -5.643,7.355 -12.443,6.222 -18.667,-3.11 -68.443,-3.11 -87.11,0 -6.8,1.133 -15.555,0 -12.444,-6.222 0,0 6.222,-12.444 6.222,-21.777 C 18.223,17.89 12.001,8.557 12.001,8.557 8.891,2.335 17.646,1.202 24.445,2.335 Z" clip-path="url(#d)" transform="matrix(0,1.28119,-1.28119,0,258.397,-12.941)"/></g></g><path style="fill:#ca9c63;stroke:#191919;stroke-width:13.10200024" id="path40" d="m 24.445,2.335 c 18.667,3.11 68.443,3.11 87.11,0 6.8,-1.133 15.555,0 12.443,6.222 0,0 -6.222,9.333 -6.222,21.777 0,12.444 6.222,21.777 6.222,21.777 3.112,6.222 -5.643,7.355 -12.443,6.222 -18.667,-3.11 -68.443,-3.11 -87.11,0 -6.8,1.133 -15.555,0 -12.444,-6.222 0,0 6.222,-12.444 6.222,-21.777 C 18.223,17.89 12.001,8.557 12.001,8.557 8.891,2.335 17.646,1.202 24.445,2.335 Z" clip-path="url(#e)" transform="matrix(0,0.9159,-0.9159,0,80.84,11.41)"/><path style="fill:#dbbb93;stroke:#191919;stroke-width:13.10200024" id="path42" d="m 24.445,2.335 c 18.667,3.11 68.443,3.11 87.11,0 6.8,-1.133 15.555,0 12.443,6.222 0,0 -6.222,9.333 -6.222,21.777 0,12.444 6.222,21.777 6.222,21.777 3.112,6.222 -5.643,7.355 -12.443,6.222 -18.667,-3.11 -68.443,-3.11 -87.11,0 -6.8,1.133 -15.555,0 -12.444,-6.222 0,0 6.222,-12.444 6.222,-21.777 C 18.223,17.89 12.001,8.557 12.001,8.557 8.891,2.335 17.646,1.202 24.445,2.335 Z" clip-path="url(#f)" transform="matrix(0,0.91589,-0.91589,0,132.443,11.411)"/><path style="fill:#ca9c63;stroke:#191919;stroke-width:13.10200024" id="path44" d="m 24.445,2.335 c 18.667,3.11 68.443,3.11 87.11,0 6.8,-1.133 15.555,0 12.443,6.222 0,0 -6.222,9.333 -6.222,21.777 0,12.444 6.222,21.777 6.222,21.777 3.112,6.222 -5.643,7.355 -12.443,6.222 -18.667,-3.11 -68.443,-3.11 -87.11,0 -6.8,1.133 -15.555,0 -12.444,-6.222 0,0 6.222,-12.444 6.222,-21.777 C 18.223,17.89 12.001,8.557 12.001,8.557 8.891,2.335 17.646,1.202 24.445,2.335 Z" clip-path="url(#g)" transform="matrix(0.91589,0,0,0.91589,119.20813,20.758856)"/><path style="fill:#dbbb93;stroke:#191919;stroke-width:13.10200024" id="path46" d="m 24.445,2.335 c 18.667,3.11 68.443,3.11 87.11,0 6.8,-1.133 15.555,0 12.443,6.222 0,0 -6.222,9.333 -6.222,21.777 0,12.444 6.222,21.777 6.222,21.777 3.112,6.222 -5.643,7.355 -12.443,6.222 -18.667,-3.11 -68.443,-3.11 -87.11,0 -6.8,1.133 -15.555,0 -12.444,-6.222 0,0 6.222,-12.444 6.222,-21.777 C 18.223,17.89 12.001,8.557 12.001,8.557 8.891,2.335 17.646,1.202 24.445,2.335 Z" clip-path="url(#h)" transform="matrix(0.91589,0,0,0.91589,119.20813,69.940856)"/></svg>