<svg xmlns="http://www.w3.org/2000/svg" width="77" height="77" fill="none" viewBox="0 0 77 77"><rect width="9.769" height="34.008" x="46.953" y="11.336" fill="#FFD770" rx="4.885" transform="rotate(45 46.9531 11.3359)"/><rect width="9.769" height="34.008" x="22.905" y="18.243" fill="#FFD770" rx="4.885" transform="rotate(-45 22.9053 18.2432)"/><rect width="41.331" height="31.562" x="17.645" y="33.881" fill="#D22B2B"/><rect width="48.846" height="12.024" x="13.889" y="24.862" fill="#B61B1B"/><rect width="9.769" height="40.579" x="33.427" y="24.862" fill="#FFC123"/><path fill="#000" fill-rule="evenodd" d="M43.4104 15.577C44.383 14.5992 45.6813 14.1475 46.954 14.2231C48.0443 14.2878 49.1161 14.7391 49.9492 15.577C51.7541 17.3918 51.7544 20.3346 49.9502 22.1508L49.9492 22.1518L46.954 25.1629H61.6172V36.6058H58.0603V63.7849H18.939V36.6058H15.3826V25.1629H30.1826L27.1886 22.1525C25.3829 20.3363 25.3822 17.3932 27.1879 15.577C28.0207 14.7396 29.0924 14.2886 30.1826 14.2239C31.4555 14.1483 32.7535 14.5994 33.7262 15.577L38.5683 20.4452L43.4104 15.577ZM58.5393 6.93979C53.1297 1.49993 44.944 0.552984 38.5678 4.09896L58.5393 6.93979ZM58.5406 6.94107C60.2926 8.70306 61.5757 10.7576 62.39 12.948H73.7654V48.8208H70.2085V75.9998H6.79076V48.8208H3.23438V12.948H14.7471C15.5616 10.7575 16.8447 8.70297 18.5965 6.94107L18.5978 6.93979C24.0076 1.50028 32.1925 0.554611 38.5678 4.09896" clip-rule="evenodd"/></svg>