<svg xmlns="http://www.w3.org/2000/svg" xmlns:svg="http://www.w3.org/2000/svg" xmlns:xlink="http://www.w3.org/1999/xlink" id="svg63" width="176" height="176" version="1.1"><metadata id="metadata67"/><defs id="defs37"><linearGradient id="linearGradient1332"><stop id="stop1328" offset="0" style="stop-color:#85ac41;stop-opacity:1"/><stop id="stop1330" offset="1" style="stop-color:#57702b;stop-opacity:1"/></linearGradient><linearGradient id="linearGradient823-9" x1="-28.568" x2="-9.511" y1="12.919" y2="29.821" gradientTransform="matrix(1.2221385,0,0,1.2208295,-82.664284,27.826602)" gradientUnits="userSpaceOnUse" xlink:href="#linearGradient1332"/><linearGradient id="linearGradient1112-3" x1="-30.146" x2="-7.922" y1="13.927" y2="28.996" gradientTransform="matrix(1.2221385,0,0,1.2208295,-77.532668,112.56051)" gradientUnits="userSpaceOnUse" xlink:href="#linearGradient1332"/><linearGradient id="linearGradient825-9" x1="-53.917" x2="-13.24" y1="62.599" y2="10.27" gradientTransform="matrix(1.7113736,0,1.5286887e-8,1.7113736,-49.49471,-140.08146)" gradientUnits="userSpaceOnUse" xlink:href="#linearGradient821-0-2"/><linearGradient id="linearGradient821-0-2"><stop style="stop-color:#657d3a;stop-opacity:1" id="stop817-8-2" offset="0"/><stop style="stop-color:#8aac4f;stop-opacity:1" id="stop819-7-1" offset="1"/></linearGradient><linearGradient id="linearGradient1108-9" x1="-66.177" x2="1.255" y1="45.765" y2="31.856" gradientTransform="matrix(1.4763809,0,0,1.4763809,-49.808808,-95.120251)" gradientUnits="userSpaceOnUse" xlink:href="#linearGradient1136-4"/><linearGradient id="linearGradient1136-4"><stop id="stop1132-9" offset="0" style="stop-color:#374a16;stop-opacity:1"/><stop id="stop1134-1" offset="1" style="stop-color:#739b2e;stop-opacity:1"/></linearGradient><linearGradient id="linearGradient996" x1="153.465" x2="206.909" y1="-57.21" y2="-57.21" gradientTransform="translate(-52.974577,112.23438)" gradientUnits="userSpaceOnUse" xlink:href="#d"/><linearGradient id="d"><stop id="stop2" offset="0" stop-color="#66a000"/><stop id="stop4" offset="1" stop-color="#0e2608"/></linearGradient><linearGradient id="linearGradient1059" x1="153.465" x2="206.909" y1="-57.21" y2="-57.21" gradientTransform="matrix(1,0,0,-1,-52.974577,62.765619)" gradientUnits="userSpaceOnUse" xlink:href="#d"/></defs><ellipse style="fill:url(#linearGradient1108-9);fill-opacity:1;stroke:#1a230a;stroke-width:8.55903244;stroke-miterlimit:10;stroke-dasharray:none;stroke-opacity:1" id="ellipse1102-7" cx="-98.27" cy="-40.423" stroke-miterlimit="10" rx="49.09" ry="49.09" transform="matrix(-0.97938026,-0.20202549,0.2020205,-0.97938129,0,0)"/><ellipse id="ellipse2-5-4" cx="-105.669" cy="-76.678" stroke-miterlimit="10" rx="56.903" ry="56.903" transform="matrix(-0.97938026,-0.20202549,0.2020205,-0.97938129,0,0)" style="fill:url(#linearGradient825-9);fill-opacity:1;stroke:#000;stroke-width:9.92096901;stroke-miterlimit:10;stroke-dasharray:none;stroke-opacity:1"/><g id="g1116-2" transform="translate(-0.43423,37.893266)"><ellipse style="fill:url(#linearGradient823-9);fill-opacity:1;stroke:#1e270f;stroke-width:6.77679205;stroke-miterlimit:10;stroke-opacity:1" id="ellipse2-6" cx="-104.44" cy="52.379" stroke-miterlimit="10" rx="18.617" ry="18.586" transform="matrix(0.06025201,-0.9981832,0.99817113,0.06045152,0,0)"/><ellipse id="ellipse1110-3" cx="-99.309" cy="137.113" stroke-miterlimit="10" rx="18.617" ry="18.586" transform="matrix(0.06025201,-0.9981832,0.99817113,0.06045152,0,0)" style="fill:url(#linearGradient1112-3);fill-opacity:1;stroke:#1e270f;stroke-width:6.77679205;stroke-miterlimit:10;stroke-opacity:1"/></g><g id="g1311" transform="rotate(90,149,51.000004)"><path id="path5197" d="m 194.61156,88.234385 c 5.02014,8.463177 10.1696,17.408365 13.38867,23.765625 -3.2387,6.55837 -8.42958,15.66851 -13.47852,24.23438 h 37.1543 c 7.12659,-6.91789 12.34766,-15.09713 12.34766,-24.23438 0,-8.95226 -5.06048,-16.969818 -12.02344,-23.765625 z" style="fill:#252525;fill-opacity:.6;stroke:#090909;stroke-width:8"/><g id="g1089" transform="translate(96,25.500003)"><g id="g1034" transform="translate(2.6698971,-0.99999802)"><g id="g1024"><g id="g1015" transform="translate(-19.02542)"><path id="path5171" d="m 101.3301,30.999999 c 0,0 17.02542,2 29.02542,10 8,6 24.6699,33.000001 24.6699,33.000001 h -26 z" style="fill:url(#linearGradient996);fill-opacity:1;stroke:#090909;stroke-width:8;stroke-miterlimit:4;stroke-dasharray:none;stroke-opacity:1"/><path style="fill:url(#linearGradient1059);fill-opacity:1;stroke:#090909;stroke-width:8;stroke-miterlimit:4;stroke-dasharray:none;stroke-opacity:1" id="path1057" d="m 101.3301,144 c 0,0 17.02542,-2 29.02542,-10 8,-6 24.6699,-33 24.6699,-33 h -26 z"/></g></g></g></g></g><g style="fill:#252525;fill-opacity:1;stroke:#000;stroke-width:4.12370539;stroke-miterlimit:4;stroke-dasharray:none;stroke-opacity:1" id="g1096-3" transform="matrix(1.0912516,0,0,1.0912516,-8.03014,-8.646285)"><circle style="fill:#252525;fill-opacity:1;stroke:#000;stroke-width:4.12370539;stroke-miterlimit:4;stroke-dasharray:none;stroke-opacity:1" id="circle1092-5" cx="-82.529" cy="93.151" r="32.573" transform="rotate(-86.54)"/><ellipse style="fill:#252525;fill-opacity:1;stroke:#000;stroke-width:4.12370539;stroke-miterlimit:4;stroke-dasharray:none;stroke-opacity:1" id="ellipse1094-1" cx="-82.525" cy="93.147" stroke-miterlimit="10" rx="32.582" ry="32.559" transform="matrix(0.06030825,-0.9981798,0.99817455,0.06039516,0,0)"/></g></svg>