<svg xmlns="http://www.w3.org/2000/svg" xmlns:svg="http://www.w3.org/2000/svg" xmlns:xlink="http://www.w3.org/1999/xlink" id="svg9" width="350" height="54" version="1.1" viewBox="0 0 350 54"><metadata id="metadata13"/><defs id="defs5"><linearGradient id="linearGradient1174"><stop style="stop-color:#3b3e41;stop-opacity:1" id="stop1170" offset="0"/><stop style="stop-color:#e4e5e6;stop-opacity:1" id="stop1172" offset="1"/></linearGradient><linearGradient id="linearGradient1128"><stop style="stop-color:#181818;stop-opacity:1" id="stop1124" offset="0"/><stop style="stop-color:#3e3e3e;stop-opacity:1" id="stop1126" offset="1"/></linearGradient><linearGradient id="linearGradient856"><stop id="stop852" offset="0" style="stop-color:#151617;stop-opacity:1"/><stop id="stop854" offset="1" style="stop-color:#a1a3a6;stop-opacity:1"/></linearGradient><linearGradient id="a-8"><stop id="stop3" offset="0" stop-color="#ffc321"/><stop id="stop5" offset="1" stop-color="#925d15"/></linearGradient><linearGradient id="linearGradient1040" x1="223.73" x2="344" y1="19.538" y2="19.538" gradientTransform="translate(0,17.122332)" gradientUnits="userSpaceOnUse" xlink:href="#linearGradient1174"/><linearGradient id="linearGradient1061" x1="204" x2="224" y1="30" y2="30" gradientTransform="matrix(1,0,0,1.8379624,-0.270003,-25.490723)" gradientUnits="userSpaceOnUse" xlink:href="#a-8"/><clipPath id="clipPath1069" clipPathUnits="userSpaceOnUse"><path id="path1071" d="m 204,22 h 6 v -6 c 0,-2 2,-2 2,-2 h 4 c 0,0 2,0 2,2 v 6 h 6 v 15 h -6 v 6 c 0,2 -2,2 -2,2 h -4 c 0,0 -2,0 -2,-2 v -6 h -6 z" style="fill:url(#linearGradient1073);fill-opacity:1;stroke:none;stroke-width:10.84571743;stroke-linecap:square;stroke-linejoin:round;stroke-miterlimit:4;stroke-dasharray:none;stroke-opacity:1;paint-order:fill markers stroke"/></clipPath><linearGradient id="linearGradient1073" x1="204" x2="224" y1="30" y2="30" gradientTransform="matrix(1,0,0,1.8379624,-0.270003,-25.490723)" gradientUnits="userSpaceOnUse" xlink:href="#a-8"/><linearGradient id="linearGradient1090" x1="204" x2="224" y1="30" y2="30" gradientTransform="matrix(1,0,0,1.8379624,-214.27,-25.490723)" gradientUnits="userSpaceOnUse" xlink:href="#a-8"/><clipPath id="clipPath1096" clipPathUnits="userSpaceOnUse"><path style="fill:url(#linearGradient1100);fill-opacity:1;stroke:none;stroke-width:10.84571743;stroke-linecap:square;stroke-linejoin:round;stroke-miterlimit:4;stroke-dasharray:none;stroke-opacity:1;paint-order:fill markers stroke" id="path1098" d="m -6.000003,22 h 16 v 15 h -16 c -4,0 -4,-4 -4,-4 v -7 c 0,0 0,-4 4,-4 z"/></clipPath><linearGradient id="linearGradient1100" x1="204" x2="224" y1="30" y2="30" gradientTransform="matrix(1,0,0,1.8379624,-214.27,-25.490723)" gradientUnits="userSpaceOnUse" xlink:href="#a-8"/><clipPath id="clipPath1135" clipPathUnits="userSpaceOnUse"><path id="path1137" d="m 304,25.142975 c 26.27284,2.54283 36,13.979357 40,25.979357 -11.27,-5.21979 -26.88739,-8.69241 -43.27,-11.21979 -23.73998,-3.66242 -77,-3 -77,-3 v -14.7037 c 0,0 44.27,-0.540145 80.27,2.944133 z" clip-path="none" style="fill:url(#linearGradient1139);fill-opacity:1;stroke:none;stroke-width:6.83929777;stroke-linecap:butt;stroke-linejoin:miter;stroke-miterlimit:4;stroke-dasharray:none;stroke-opacity:1"/></clipPath><linearGradient id="linearGradient1139" x1="223.73" x2="344" y1="19.538" y2="19.538" gradientTransform="translate(0,17.122332)" gradientUnits="userSpaceOnUse" xlink:href="#linearGradient856"/><clipPath id="clipPath1150" clipPathUnits="userSpaceOnUse"><rect id="rect1152" width="16.05" height="200" x="-37.537" y="-206" rx="2.7" ry="2.7" style="fill:#c15800;fill-opacity:1;stroke:none;stroke-width:18.26990318;stroke-miterlimit:4;stroke-dasharray:none;stroke-opacity:1"/></clipPath><linearGradient id="linearGradient1168" x1="-14" x2="-42" y1="-164" y2="-44" gradientUnits="userSpaceOnUse" xlink:href="#linearGradient1128"/></defs><path id="path1092" d="m -6.000003,22 h 16 v 15 h -16 c -4,0 -4,-4 -4,-4 v -7 c 0,0 0,-4 4,-4 z" clip-path="url(#clipPath1096)" transform="translate(12.674539)" style="fill:url(#linearGradient1090);fill-opacity:1;stroke:#000;stroke-width:8;stroke-linecap:square;stroke-linejoin:round;stroke-miterlimit:4;stroke-dasharray:none;stroke-opacity:1;paint-order:fill markers stroke"/><rect style="fill:url(#linearGradient1168);fill-opacity:1;stroke:#000;stroke-width:8;stroke-miterlimit:4;stroke-dasharray:none;stroke-opacity:1" id="rect1148" width="16.05" height="200" x="-37.537" y="-206" clip-path="url(#clipPath1150)" rx="2.7" ry="2.7" transform="matrix(0,-1,-1,0,6.6745389,-5.6954534e-8)"/><path style="fill:url(#linearGradient1061);fill-opacity:1;stroke:#000;stroke-width:8;stroke-linecap:square;stroke-linejoin:miter;stroke-miterlimit:4;stroke-dasharray:none;stroke-opacity:1;paint-order:fill markers stroke" id="path1064" d="m 204,22 h 6 v -6 c 0,-2 2,-2 2,-2 h 4 c 0,0 2,0 2,2 v 6 h 6 v 15 h -6 v 6 c 0,2 -2,2 -2,2 h -4 c 0,0 -2,0 -2,-2 v -6 h -6 z" clip-path="url(#clipPath1069)" transform="translate(5.4075897)"/><path style="fill:url(#linearGradient1040);fill-opacity:1;stroke:#000;stroke-width:8;stroke-linecap:butt;stroke-linejoin:miter;stroke-miterlimit:4;stroke-dasharray:none;stroke-opacity:1" id="path1131" d="m 304,25.142975 c 26.27284,2.54283 36,13.979357 40,25.979357 -11.27,-5.21979 -26.88739,-8.69241 -43.27,-11.21979 -23.73998,-3.66242 -77,-3 -77,-3 v -14.7037 c 0,0 44.27,-0.540145 80.27,2.944133 z" clip-path="url(#clipPath1135)" transform="translate(2.4838609)"/><path style="fill:none;stroke:#000;stroke-width:3.69400001;stroke-opacity:.56099997" id="path41" d="m 228.91679,26.206183 c 42.60554,0.907024 62.61396,0.8041 85.12091,5.340961 15.31003,3.086134 25.6194,13.138727 25.6194,13.138727"/><rect style="fill:#000;fill-opacity:1;stroke:none;stroke-width:6.92819834;stroke-linecap:square;stroke-linejoin:miter;stroke-miterlimit:4;stroke-dasharray:none;stroke-opacity:1;paint-order:fill markers stroke" id="rect1075" width="6" height="19" x="216.408" y="18"/></svg>