<svg xmlns="http://www.w3.org/2000/svg" width="129" height="129" fill="none" viewBox="0 0 129 129"><g filter="url(#filter0_d)"><circle cx="65.073" cy="64.103" r="38.773" fill="url(#paint0_radial)"/></g><g filter="url(#filter1_dd)"><path fill="#000" fill-rule="evenodd" d="M28.3165 36.1259L24.8933 33.1725L25.2899 32.7128L28.89 35.8188L29.0864 37.39H32.5848L33.3839 38.1891L35.4842 35.6688H38.5174L41.1339 38.6294H43.2952L45.1565 41.4585V44.6437L49.7005 48.4417L53.3989 54.6549L47.1267 55.6493L41.5842 48.0284L37.6639 47.4581V44.497L34.5895 43.0623L34.1682 39.832L33.4247 39.0885L33.0144 39.5808H28.7484L28.5504 37.9972H27.3998L24.7313 40.0887L21.5537 37.1556L17.0215 36.5891L17.0968 35.9866L21.8224 36.5773L24.7634 39.2921L27.1902 37.39H28.4745L28.3165 36.1259ZM29.1623 37.9972L29.2843 38.9737H32.73L32.9936 38.6574L32.3333 37.9972H29.1623ZM33.815 38.6202L34.7435 39.5487L35.1484 42.6531L38.271 44.1103V46.9329L41.9247 47.4644L47.3989 54.9914L52.4189 54.1956L49.2318 48.8412L44.5493 44.9275V41.6404L42.9679 39.2365H40.8602L38.2437 36.2759H35.7686L33.815 38.6202Z" clip-rule="evenodd"/></g><g filter="url(#filter2_dd)"><path fill="#000" fill-rule="evenodd" d="M45.3577 60.9245C45.3966 60.9049 45.4807 60.8645 45.5772 60.8645L45.5774 61.4716C45.6078 61.4716 45.6299 61.4658 45.6394 61.4626C45.6371 61.4637 45.634 61.4651 45.6301 61.4671C45.61 61.4772 45.5776 61.4962 45.5311 61.5273C45.4392 61.5891 45.3156 61.6827 45.1647 61.8045C44.8644 62.0472 44.4758 62.386 44.0538 62.766C43.2109 63.5253 42.2476 64.4376 41.6179 65.0461L41.5594 65.1025L38.9406 65.7574L38.3284 68.6144L36.2418 71.4721H34.1783V75.5633L32.607 77.7793L36.3911 81.7714V83.0542L40.6483 80.4613L42.6007 79.9433L43.2613 77.177L46.4376 74.3052L46.8448 74.7556L43.8081 77.5011L43.107 80.4371L40.889 81.0255L35.784 84.1349V82.0134L31.8232 77.835L33.5712 75.3699V70.865H35.9333L37.7618 68.3608L38.4262 65.2602L41.2545 64.553C41.8874 63.9425 42.8233 63.0573 43.6475 62.3149C44.072 61.9326 44.4701 61.5852 44.7832 61.3323C44.9391 61.2063 45.0788 61.0997 45.1927 61.0233C45.2492 60.9853 45.3054 60.9507 45.3577 60.9245Z" clip-rule="evenodd"/></g><g filter="url(#filter3_dd)"><path fill="#000" fill-rule="evenodd" d="M57.0945 89.5674L54.7688 84.5741L55.3192 84.3177L57.6756 89.377L58.4924 93.4611L60.7182 95.8955V98.2372L55.0878 99.8974H53.485L56.7224 104.629L59.5707 107.342L61.9869 108.909L66.774 107.815L69.807 109.028V113.238L70.6626 115.386L68.0344 115.793L65.9477 113.647L62.5937 114.838L60.2186 115.213L59.6791 117.822L59.0845 117.699L59.7091 114.679L62.4435 114.247L66.1115 112.945L68.2511 115.145L69.8166 114.902L69.1999 113.354V109.439L66.7245 108.449L61.8719 109.558L59.1929 107.82L56.2574 105.025L52.334 99.2903H55.0001L60.1111 97.7832V96.1313L57.9302 93.7459L57.0945 89.5674Z" clip-rule="evenodd"/></g><g filter="url(#filter4_dd)"><path fill="#000" fill-rule="evenodd" d="M88.4608 69.8893H93.1243L95.7568 73.0337L96.1208 77.9124L93.2861 79.9866V83.4747L90.5275 86.0843L88.3782 85.6237L84.0403 82.3705L79.6875 83.6624L75.7402 82.3235L75.9353 81.7485L79.6997 83.0255L84.1603 81.7016L88.6358 85.058L90.3423 85.4237L92.679 83.2133V79.6785L95.4903 77.6214L95.1658 73.2737L92.8408 70.4964H88.5531L81.2986 72.755L81.1182 72.1753L88.4608 69.8893Z" clip-rule="evenodd"/></g><g filter="url(#filter5_dd)"><path fill="#000" fill-rule="evenodd" d="M86.5797 56.5315H90.9719L94.6212 60.112H97.2914L99.8271 62.2003V64.337L102.03 66.196V69.2984L98.3123 72.5345V74.3684L94.9098 76.1884L93.661 73.544L90.6157 72.6442L89.6722 70.0834H86.2164L83.3884 68.3159L83.7102 67.801L86.3905 69.4762H90.0956L91.08 72.1483L94.0939 73.0388L95.1862 75.352L97.7052 74.0046V72.2581L101.423 69.0219V66.4781L99.22 64.6191V62.4868L97.0736 60.7192H94.3731L90.7238 57.1386H86.7158L81.8198 59.4506L81.5605 58.9016L86.5797 56.5315Z" clip-rule="evenodd"/></g><g filter="url(#filter6_dd)"><path fill="#000" fill-rule="evenodd" d="M63.8693 86.701H64.4765V92.2143L66.1325 94.3498L65.1627 97.017L63.0044 97.3454H59.5034L54.4239 99.2147L54.1859 104.332L57.6688 106.654H61.1099L63.9775 109.614L62.8037 112.396L63.9314 114.735L63.5383 118.141L62.9352 118.072L63.3081 114.84L62.1377 112.412L63.262 109.748L60.8527 107.261H57.485L53.5635 104.646L53.8362 98.784L59.3953 96.7383H62.9584L64.7152 96.4709L65.4475 94.4571L63.8693 92.4221V86.701Z" clip-rule="evenodd"/></g><g filter="url(#filter7_dd)"><path fill="#000" fill-rule="evenodd" d="M100.726 25.9369L103.971 25.1931L103.836 24.6013L100.471 25.3725L97.0579 27.8298H92.7468L88.5675 32.7297L89.056 35.2535H91.9675L93.9302 36.5832L95.0416 40.8433H89.8241L87.552 39.0682L85.0093 40.3394V42.3341L84.0404 43.3569L80.7599 40.8638L77.3665 40.1533V42.3485L74.1279 46.3967L74.602 46.776L77.9736 42.5615V40.9007L80.5016 41.43L84.1066 44.1698L85.6164 42.576V40.7147L87.4804 39.7828L89.615 41.4504H95.8274L94.46 36.2088L92.1538 34.6464H89.5569L89.2191 32.9013L93.0269 28.437H97.2538L100.726 25.9369Z" clip-rule="evenodd"/></g><g filter="url(#filter8_dd)"><path fill="#000" fill-rule="evenodd" d="M80.4833 45.8822L83.7536 43.8134L83.429 43.3003L79.9514 45.5003L79.3027 48.1672L79.8927 48.3107L80.4833 45.8822Z" clip-rule="evenodd"/></g><g filter="url(#filter9_dd)"><path fill="#000" fill-rule="evenodd" d="M92.7568 28.3444L93.2932 28.0599L95.6176 32.4432H97.7754L99.1525 30.8595H102.389V31.4666H99.4291L98.052 33.0503H95.2523L92.7568 28.3444Z" clip-rule="evenodd"/></g><g filter="url(#filter10_dd)"><path fill="#000" fill-rule="evenodd" d="M99.4503 35.5408L98.15 32.5018L97.5918 32.7407L99.0497 36.1479H104.183V35.5408H99.4503Z" clip-rule="evenodd"/></g><g filter="url(#filter11_d)"><circle cx="64.841" cy="64.223" r="24.432" fill="#E9E9E9"/><circle cx="64.841" cy="64.223" r="23.343" stroke="#000" stroke-width="2.179"/></g><defs><filter id="filter0_d" width="88.439" height="88.439" x="20.854" y="19.884" color-interpolation-filters="sRGB" filterUnits="userSpaceOnUse"><feFlood flood-opacity="0" result="BackgroundImageFix"/><feColorMatrix in="SourceAlpha" type="matrix" values="0 0 0 0 0 0 0 0 0 0 0 0 0 0 0 0 0 0 127 0"/><feOffset/><feGaussianBlur stdDeviation="2.723"/><feColorMatrix type="matrix" values="0 0 0 0 0.650103 0 0 0 0 0.254167 0 0 0 0 1 0 0 0 1 0"/><feBlend in2="BackgroundImageFix" mode="normal" result="effect1_dropShadow"/><feBlend in="SourceGraphic" in2="effect1_dropShadow" mode="normal" result="shape"/></filter><filter id="filter1_dd" width="44.003" height="30.562" x="13.209" y="28.9" color-interpolation-filters="sRGB" filterUnits="userSpaceOnUse"><feFlood flood-opacity="0" result="BackgroundImageFix"/><feColorMatrix in="SourceAlpha" type="matrix" values="0 0 0 0 0 0 0 0 0 0 0 0 0 0 0 0 0 0 127 0"/><feOffset/><feGaussianBlur stdDeviation="1.089"/><feColorMatrix type="matrix" values="0 0 0 0 0.678431 0 0 0 0 0 0 0 0 0 1 0 0 0 1 0"/><feBlend in2="BackgroundImageFix" mode="normal" result="effect1_dropShadow"/><feColorMatrix in="SourceAlpha" type="matrix" values="0 0 0 0 0 0 0 0 0 0 0 0 0 0 0 0 0 0 127 0"/><feOffset/><feGaussianBlur stdDeviation="1.906"/><feColorMatrix type="matrix" values="0 0 0 0 0.678431 0 0 0 0 0 0 0 0 0 1 0 0 0 1 0"/><feBlend in2="effect1_dropShadow" mode="normal" result="effect2_dropShadow"/><feBlend in="SourceGraphic" in2="effect2_dropShadow" mode="normal" result="shape"/></filter><filter id="filter2_dd" width="22.647" height="30.896" x="28.011" y="57.052" color-interpolation-filters="sRGB" filterUnits="userSpaceOnUse"><feFlood flood-opacity="0" result="BackgroundImageFix"/><feColorMatrix in="SourceAlpha" type="matrix" values="0 0 0 0 0 0 0 0 0 0 0 0 0 0 0 0 0 0 127 0"/><feOffset/><feGaussianBlur stdDeviation="1.089"/><feColorMatrix type="matrix" values="0 0 0 0 0.678431 0 0 0 0 0 0 0 0 0 1 0 0 0 1 0"/><feBlend in2="BackgroundImageFix" mode="normal" result="effect1_dropShadow"/><feColorMatrix in="SourceAlpha" type="matrix" values="0 0 0 0 0 0 0 0 0 0 0 0 0 0 0 0 0 0 127 0"/><feOffset/><feGaussianBlur stdDeviation="1.906"/><feColorMatrix type="matrix" values="0 0 0 0 0.678431 0 0 0 0 0 0 0 0 0 1 0 0 0 1 0"/><feBlend in2="effect1_dropShadow" mode="normal" result="effect2_dropShadow"/><feBlend in="SourceGraphic" in2="effect2_dropShadow" mode="normal" result="shape"/></filter><filter id="filter3_dd" width="25.954" height="41.13" x="48.521" y="80.505" color-interpolation-filters="sRGB" filterUnits="userSpaceOnUse"><feFlood flood-opacity="0" result="BackgroundImageFix"/><feColorMatrix in="SourceAlpha" type="matrix" values="0 0 0 0 0 0 0 0 0 0 0 0 0 0 0 0 0 0 127 0"/><feOffset/><feGaussianBlur stdDeviation="1.089"/><feColorMatrix type="matrix" values="0 0 0 0 0.678431 0 0 0 0 0 0 0 0 0 1 0 0 0 1 0"/><feBlend in2="BackgroundImageFix" mode="normal" result="effect1_dropShadow"/><feColorMatrix in="SourceAlpha" type="matrix" values="0 0 0 0 0 0 0 0 0 0 0 0 0 0 0 0 0 0 127 0"/><feOffset/><feGaussianBlur stdDeviation="1.906"/><feColorMatrix type="matrix" values="0 0 0 0 0.678431 0 0 0 0 0 0 0 0 0 1 0 0 0 1 0"/><feBlend in2="effect1_dropShadow" mode="normal" result="effect2_dropShadow"/><feBlend in="SourceGraphic" in2="effect2_dropShadow" mode="normal" result="shape"/></filter><filter id="filter4_dd" width="28.006" height="23.821" x="71.927" y="66.076" color-interpolation-filters="sRGB" filterUnits="userSpaceOnUse"><feFlood flood-opacity="0" result="BackgroundImageFix"/><feColorMatrix in="SourceAlpha" type="matrix" values="0 0 0 0 0 0 0 0 0 0 0 0 0 0 0 0 0 0 127 0"/><feOffset/><feGaussianBlur stdDeviation="1.089"/><feColorMatrix type="matrix" values="0 0 0 0 0.678431 0 0 0 0 0 0 0 0 0 1 0 0 0 1 0"/><feBlend in2="BackgroundImageFix" mode="normal" result="effect1_dropShadow"/><feColorMatrix in="SourceAlpha" type="matrix" values="0 0 0 0 0 0 0 0 0 0 0 0 0 0 0 0 0 0 127 0"/><feOffset/><feGaussianBlur stdDeviation="1.906"/><feColorMatrix type="matrix" values="0 0 0 0 0.678431 0 0 0 0 0 0 0 0 0 1 0 0 0 1 0"/><feBlend in2="effect1_dropShadow" mode="normal" result="effect2_dropShadow"/><feBlend in="SourceGraphic" in2="effect2_dropShadow" mode="normal" result="shape"/></filter><filter id="filter5_dd" width="28.095" height="27.282" x="77.748" y="52.719" color-interpolation-filters="sRGB" filterUnits="userSpaceOnUse"><feFlood flood-opacity="0" result="BackgroundImageFix"/><feColorMatrix in="SourceAlpha" type="matrix" values="0 0 0 0 0 0 0 0 0 0 0 0 0 0 0 0 0 0 127 0"/><feOffset/><feGaussianBlur stdDeviation="1.089"/><feColorMatrix type="matrix" values="0 0 0 0 0.678431 0 0 0 0 0 0 0 0 0 1 0 0 0 1 0"/><feBlend in2="BackgroundImageFix" mode="normal" result="effect1_dropShadow"/><feColorMatrix in="SourceAlpha" type="matrix" values="0 0 0 0 0 0 0 0 0 0 0 0 0 0 0 0 0 0 127 0"/><feOffset/><feGaussianBlur stdDeviation="1.906"/><feColorMatrix type="matrix" values="0 0 0 0 0.678431 0 0 0 0 0 0 0 0 0 1 0 0 0 1 0"/><feBlend in2="effect1_dropShadow" mode="normal" result="effect2_dropShadow"/><feBlend in="SourceGraphic" in2="effect2_dropShadow" mode="normal" result="shape"/></filter><filter id="filter6_dd" width="20.195" height="39.066" x="49.751" y="82.888" color-interpolation-filters="sRGB" filterUnits="userSpaceOnUse"><feFlood flood-opacity="0" result="BackgroundImageFix"/><feColorMatrix in="SourceAlpha" type="matrix" values="0 0 0 0 0 0 0 0 0 0 0 0 0 0 0 0 0 0 127 0"/><feOffset/><feGaussianBlur stdDeviation="1.089"/><feColorMatrix type="matrix" values="0 0 0 0 0.678431 0 0 0 0 0 0 0 0 0 1 0 0 0 1 0"/><feBlend in2="BackgroundImageFix" mode="normal" result="effect1_dropShadow"/><feColorMatrix in="SourceAlpha" type="matrix" values="0 0 0 0 0 0 0 0 0 0 0 0 0 0 0 0 0 0 127 0"/><feOffset/><feGaussianBlur stdDeviation="1.906"/><feColorMatrix type="matrix" values="0 0 0 0 0.678431 0 0 0 0 0 0 0 0 0 1 0 0 0 1 0"/><feBlend in2="effect1_dropShadow" mode="normal" result="effect2_dropShadow"/><feBlend in="SourceGraphic" in2="effect2_dropShadow" mode="normal" result="shape"/></filter><filter id="filter7_dd" width="37.469" height="29.8" x="70.315" y="20.789" color-interpolation-filters="sRGB" filterUnits="userSpaceOnUse"><feFlood flood-opacity="0" result="BackgroundImageFix"/><feColorMatrix in="SourceAlpha" type="matrix" values="0 0 0 0 0 0 0 0 0 0 0 0 0 0 0 0 0 0 127 0"/><feOffset/><feGaussianBlur stdDeviation="1.089"/><feColorMatrix type="matrix" values="0 0 0 0 0.678431 0 0 0 0 0 0 0 0 0 1 0 0 0 1 0"/><feBlend in2="BackgroundImageFix" mode="normal" result="effect1_dropShadow"/><feColorMatrix in="SourceAlpha" type="matrix" values="0 0 0 0 0 0 0 0 0 0 0 0 0 0 0 0 0 0 127 0"/><feOffset/><feGaussianBlur stdDeviation="1.906"/><feColorMatrix type="matrix" values="0 0 0 0 0.678431 0 0 0 0 0 0 0 0 0 1 0 0 0 1 0"/><feBlend in2="effect1_dropShadow" mode="normal" result="effect2_dropShadow"/><feBlend in="SourceGraphic" in2="effect2_dropShadow" mode="normal" result="shape"/></filter><filter id="filter8_dd" width="12.076" height="12.636" x="75.49" y="39.487" color-interpolation-filters="sRGB" filterUnits="userSpaceOnUse"><feFlood flood-opacity="0" result="BackgroundImageFix"/><feColorMatrix in="SourceAlpha" type="matrix" values="0 0 0 0 0 0 0 0 0 0 0 0 0 0 0 0 0 0 127 0"/><feOffset/><feGaussianBlur stdDeviation="1.089"/><feColorMatrix type="matrix" values="0 0 0 0 0.678431 0 0 0 0 0 0 0 0 0 1 0 0 0 1 0"/><feBlend in2="BackgroundImageFix" mode="normal" result="effect1_dropShadow"/><feColorMatrix in="SourceAlpha" type="matrix" values="0 0 0 0 0 0 0 0 0 0 0 0 0 0 0 0 0 0 127 0"/><feOffset/><feGaussianBlur stdDeviation="1.906"/><feColorMatrix type="matrix" values="0 0 0 0 0.678431 0 0 0 0 0 0 0 0 0 1 0 0 0 1 0"/><feBlend in2="effect1_dropShadow" mode="normal" result="effect2_dropShadow"/><feBlend in="SourceGraphic" in2="effect2_dropShadow" mode="normal" result="shape"/></filter><filter id="filter9_dd" width="17.258" height="12.616" x="88.944" y="24.247" color-interpolation-filters="sRGB" filterUnits="userSpaceOnUse"><feFlood flood-opacity="0" result="BackgroundImageFix"/><feColorMatrix in="SourceAlpha" type="matrix" values="0 0 0 0 0 0 0 0 0 0 0 0 0 0 0 0 0 0 127 0"/><feOffset/><feGaussianBlur stdDeviation="1.089"/><feColorMatrix type="matrix" values="0 0 0 0 0.678431 0 0 0 0 0 0 0 0 0 1 0 0 0 1 0"/><feBlend in2="BackgroundImageFix" mode="normal" result="effect1_dropShadow"/><feColorMatrix in="SourceAlpha" type="matrix" values="0 0 0 0 0 0 0 0 0 0 0 0 0 0 0 0 0 0 127 0"/><feOffset/><feGaussianBlur stdDeviation="1.906"/><feColorMatrix type="matrix" values="0 0 0 0 0.678431 0 0 0 0 0 0 0 0 0 1 0 0 0 1 0"/><feBlend in2="effect1_dropShadow" mode="normal" result="effect2_dropShadow"/><feBlend in="SourceGraphic" in2="effect2_dropShadow" mode="normal" result="shape"/></filter><filter id="filter10_dd" width="14.216" height="11.272" x="93.779" y="28.689" color-interpolation-filters="sRGB" filterUnits="userSpaceOnUse"><feFlood flood-opacity="0" result="BackgroundImageFix"/><feColorMatrix in="SourceAlpha" type="matrix" values="0 0 0 0 0 0 0 0 0 0 0 0 0 0 0 0 0 0 127 0"/><feOffset/><feGaussianBlur stdDeviation="1.089"/><feColorMatrix type="matrix" values="0 0 0 0 0.678431 0 0 0 0 0 0 0 0 0 1 0 0 0 1 0"/><feBlend in2="BackgroundImageFix" mode="normal" result="effect1_dropShadow"/><feColorMatrix in="SourceAlpha" type="matrix" values="0 0 0 0 0 0 0 0 0 0 0 0 0 0 0 0 0 0 127 0"/><feOffset/><feGaussianBlur stdDeviation="1.906"/><feColorMatrix type="matrix" values="0 0 0 0 0.678431 0 0 0 0 0 0 0 0 0 1 0 0 0 1 0"/><feBlend in2="effect1_dropShadow" mode="normal" result="effect2_dropShadow"/><feBlend in="SourceGraphic" in2="effect2_dropShadow" mode="normal" result="shape"/></filter><filter id="filter11_d" width="59.758" height="59.758" x="34.962" y="34.344" color-interpolation-filters="sRGB" filterUnits="userSpaceOnUse"><feFlood flood-opacity="0" result="BackgroundImageFix"/><feColorMatrix in="SourceAlpha" type="matrix" values="0 0 0 0 0 0 0 0 0 0 0 0 0 0 0 0 0 0 127 0"/><feOffset/><feGaussianBlur stdDeviation="2.723"/><feColorMatrix type="matrix" values="0 0 0 0 0.650103 0 0 0 0 0.254167 0 0 0 0 1 0 0 0 1 0"/><feBlend in2="BackgroundImageFix" mode="normal" result="effect1_dropShadow"/><feBlend in="SourceGraphic" in2="effect1_dropShadow" mode="normal" result="shape"/></filter><radialGradient id="paint0_radial" cx="0" cy="0" r="1" gradientTransform="translate(65.0734 64.1034) rotate(90) scale(38.7726)" gradientUnits="userSpaceOnUse"><stop stop-color="#9705DB" stop-opacity=".01"/><stop offset="1" stop-color="#9705DB" stop-opacity="0"/></radialGradient></defs></svg>