<svg xmlns="http://www.w3.org/2000/svg" xmlns:svg="http://www.w3.org/2000/svg" xmlns:xlink="http://www.w3.org/1999/xlink" id="svg87" width="160" height="160" version="1.1"><metadata id="metadata91"/><defs id="defs33"><linearGradient id="linearGradient1502"><stop id="stop1498" offset="0" stop-color="#3b1208" style="stop-color:#623f12;stop-opacity:1"/><stop id="stop1500" offset="1" stop-color="#1b0a01" style="stop-color:#201607;stop-opacity:1"/></linearGradient><linearGradient id="linearGradient1458"><stop style="stop-color:#0f0f0f;stop-opacity:1" id="stop1454" offset="0"/><stop style="stop-color:#d7d7d7;stop-opacity:1" id="stop1456" offset="1"/></linearGradient><linearGradient id="linearGradient988"><stop id="stop984" offset="0" stop-color="#66a000" style="stop-color:#433d00;stop-opacity:1"/><stop id="stop986" offset="1" stop-color="#0e2608" style="stop-color:#ffec17;stop-opacity:1"/></linearGradient><linearGradient id="linearGradient856"><stop id="stop852" offset="0" style="stop-color:#151617;stop-opacity:1"/><stop id="stop854" offset="1" style="stop-color:#a1a3a6;stop-opacity:1"/></linearGradient><clipPath id="clipPath1241" clipPathUnits="userSpaceOnUse"><path style="fill:#141418;fill-opacity:.80303034;stroke:none;stroke-width:4.83357763;stroke-linecap:square;stroke-linejoin:bevel;stroke-miterlimit:4;stroke-dasharray:none;stroke-opacity:1;paint-order:normal" id="path1243" d="M 89,94 V 78 h 14 v 16 l -2,2 H 91 Z"/></clipPath><clipPath id="clipPath1254" clipPathUnits="userSpaceOnUse"><path id="path1256" d="m 103,74 0.042,9 L 89.041998,83.118106 89,74 91,72 h 10 z" style="fill:#141418;fill-opacity:.80303034;stroke:none;stroke-width:4.39397526;stroke-linecap:square;stroke-linejoin:bevel;stroke-miterlimit:4;stroke-dasharray:none;stroke-opacity:1;paint-order:normal"/></clipPath><clipPath id="clipPath1266" clipPathUnits="userSpaceOnUse"><path style="fill:#141418;fill-opacity:.80303034;stroke:none;stroke-width:3.25903916;stroke-linecap:square;stroke-linejoin:bevel;stroke-miterlimit:4;stroke-dasharray:none;stroke-opacity:1;paint-order:normal" id="path1268" d="m 90,110 1,-14 v -4 h 10 v 4 l 1,14 v 9 l -1,1 H 91 l -1,-1 z"/></clipPath><clipPath id="clipPath1272" clipPathUnits="userSpaceOnUse"><path style="fill:#141418;fill-opacity:.80303034;stroke:none;stroke-width:3.84487534;stroke-linecap:square;stroke-linejoin:bevel;stroke-miterlimit:4;stroke-dasharray:none;stroke-opacity:1;paint-order:normal" id="path1274" d="m 91,168 v -54 h 10 v 54 z"/></clipPath><clipPath id="clipPath1278" clipPathUnits="userSpaceOnUse"><circle style="fill:#141418;fill-opacity:.80303034;stroke:none;stroke-width:2.50015521;stroke-linecap:round;stroke-linejoin:round;stroke-miterlimit:4;stroke-dasharray:none;stroke-opacity:.70588235;paint-order:normal" id="circle1280" cx="96" cy="171.092" r="7.913"/></clipPath><clipPath id="clipPath1302" clipPathUnits="userSpaceOnUse"><path style="fill:#141418;fill-opacity:.80303034;stroke:none;stroke-width:.37592056px;stroke-linecap:butt;stroke-linejoin:miter;stroke-opacity:1" id="path1304" d="M 92,24 72,39 c 0,0 -3,2 -3,5 l 7,36 h 40 l 7,-36 c 0,-3 -3,-5 -3,-5 L 100,24 c -4,-2.898305 -4,-2.898305 -8,0 z"/></clipPath><linearGradient id="linearGradient1312" x1="96" x2="96" y1="78" y2="28" gradientUnits="userSpaceOnUse" xlink:href="#linearGradient1458"/><linearGradient id="linearGradient1452" x1="89" x2="103.042" y1="77.559" y2="77.559" gradientUnits="userSpaceOnUse" xlink:href="#linearGradient856"/><linearGradient id="linearGradient1474" x1="89" x2="103" y1="87" y2="87" gradientUnits="userSpaceOnUse" xlink:href="#linearGradient988"/><linearGradient id="linearGradient1482" x1="90" x2="102" y1="106" y2="106" gradientUnits="userSpaceOnUse" xlink:href="#linearGradient856"/><linearGradient id="linearGradient1490" x1="84" x2="104" y1="180.844" y2="131.055" gradientUnits="userSpaceOnUse" xlink:href="#linearGradient988"/><linearGradient id="linearGradient1510" x1="100" x2="93" y1="167.315" y2="175.315" gradientUnits="userSpaceOnUse" xlink:href="#linearGradient1502"/><clipPath id="clipPath1544" clipPathUnits="userSpaceOnUse"><circle style="fill:#623f12;fill-opacity:1;stroke:#000;stroke-width:4;stroke-linecap:round;stroke-linejoin:round;stroke-miterlimit:4;stroke-dasharray:none;stroke-opacity:0;paint-order:normal" id="circle1546" cx="96" cy="168.755" r="7.245"/></clipPath><linearGradient id="linearGradient876" x1="92" x2="101" y1="167.982" y2="168.982" gradientUnits="userSpaceOnUse" xlink:href="#linearGradient1502"/></defs><path id="circle1276" cx="96" cy="171.092" r="7.913" clip-path="url(#clipPath1278)" transform="translate(-16,-19.227686)" style="fill:url(#linearGradient1510);fill-opacity:1;stroke:#000;stroke-width:8;stroke-linecap:round;stroke-linejoin:round;stroke-miterlimit:4;stroke-dasharray:none;stroke-opacity:1;paint-order:normal"/><path id="path1300" d="M 92,24 72,39 c 0,0 -3,2 -3,5 l 7,36 h 40 l 7,-36 c 0,-3 -3,-5 -3,-5 L 100,24 c -4,-2.898305 -4,-2.898305 -8,0 z" clip-path="url(#clipPath1302)" transform="translate(-16,-16.844283)" style="fill:url(#linearGradient1312);fill-opacity:1;stroke:#000;stroke-width:8;stroke-linecap:butt;stroke-linejoin:miter;stroke-miterlimit:4;stroke-dasharray:none;stroke-opacity:1"/><path id="path1239" d="M 89,94 V 78 h 14 v 16 l -2,2 H 91 Z" clip-path="url(#clipPath1241)" transform="translate(-16,-16.844283)" style="fill:url(#linearGradient1474);fill-opacity:1;stroke:#000;stroke-width:8;stroke-linecap:square;stroke-linejoin:bevel;stroke-miterlimit:4;stroke-dasharray:none;stroke-opacity:1;paint-order:normal"/><path id="path1270" d="m 91,168 v -54 h 10 v 54 z" clip-path="url(#clipPath1272)" transform="translate(-16,-16.844283)" style="fill:url(#linearGradient1490);fill-opacity:1;stroke:#000;stroke-width:8;stroke-linecap:square;stroke-linejoin:bevel;stroke-miterlimit:4;stroke-dasharray:none;stroke-opacity:1;paint-order:normal"/><path id="path1264" d="m 90,110 1,-14 v -4 h 10 v 4 l 1,14 v 9 l -1,1 H 91 l -1,-1 z" clip-path="url(#clipPath1266)" transform="translate(-16,-16.844283)" style="fill:url(#linearGradient1482);fill-opacity:1;stroke:#000;stroke-width:8;stroke-linecap:square;stroke-linejoin:bevel;stroke-miterlimit:4;stroke-dasharray:none;stroke-opacity:1;paint-order:normal"/><path style="fill:none;stroke:#000;stroke-width:8;stroke-miterlimit:4;stroke-dasharray:none;stroke-opacity:.56099997" id="path1412" d="M 100,57.155716 H 60"/><path style="fill:#000;fill-opacity:.56078384;stroke:none;stroke-width:1px;stroke-linecap:butt;stroke-linejoin:miter;stroke-opacity:.56099997" id="path1420" d="m 79,15.155716 -2,38 h 6 l -2,-38 c 0,-2 -2,-2 -2,0 z"/><path id="path1426" d="m 67.473684,25.155716 -1.473684,28 h 4.421053 l -1.473685,-28 c 0,-1.473684 -1.473684,-1.473684 -1.473684,0 z" style="fill:#000;fill-opacity:.56078384;stroke:none;stroke-width:.7368421px;stroke-linecap:butt;stroke-linejoin:miter;stroke-opacity:.56099997"/><path style="fill:#000;fill-opacity:.56078384;stroke:none;stroke-width:.7368421px;stroke-linecap:butt;stroke-linejoin:miter;stroke-opacity:.56099997" id="path1428" d="m 91.05263,25.155716 -1.47368,28 H 94 l -1.47368,-28 c 0,-1.473684 -1.47369,-1.473684 -1.47369,0 z"/><path style="fill:url(#linearGradient1452);fill-opacity:1;stroke:#000;stroke-width:8;stroke-linecap:square;stroke-linejoin:bevel;stroke-miterlimit:4;stroke-dasharray:none;stroke-opacity:1;paint-order:normal" id="path1252" d="m 103,74 0.042,9 L 89.041998,83.118106 89,74 91,72 h 10 z" clip-path="url(#clipPath1254)" transform="translate(-16,-16.844283)"/><circle style="fill:url(#linearGradient876);fill-opacity:1;stroke:#000;stroke-width:8;stroke-linecap:round;stroke-linejoin:round;stroke-miterlimit:4;stroke-dasharray:none;stroke-opacity:1;paint-order:normal" id="circle874" cx="96" cy="168.755" r="7.245" clip-path="url(#clipPath1544)" transform="translate(-16,-20.981995)"/></svg>