<svg xmlns="http://www.w3.org/2000/svg" xmlns:svg="http://www.w3.org/2000/svg" id="svg11" width="176" height="176" version="1.1"><metadata id="metadata15"/><defs id="defs5"><clipPath id="a"><path id="path2" fill="#252525" fill-opacity=".601" stroke-width="12.537" d="M188 128c0 80-69.756 119.362-69.756 119.362C64 244 8.638 193.922 8.638 128S64 12 118.244 8.638C118.244 8.638 188 48 188 128z"/></clipPath><clipPath id="clipPath881" clipPathUnits="userSpaceOnUse"><path id="path883" d="M 53.110836,88.000002 C 53.110836,41.958818 80,32 80,32 111.21823,33.93488 156.33632,50.060916 156.33632,88.000002 156.33632,125.93909 111.21823,142.06513 80,144 80,144 53.110836,134.04118 53.110836,88.000002 Z" style="fill:#252525;fill-opacity:.60100002;stroke-width:7.21522856"/></clipPath></defs><path style="fill:#171e15;fill-opacity:.83333331;stroke-width:19;stroke:#090909;stroke-opacity:1;stroke-miterlimit:4;stroke-dasharray:none" id="path879" d="M 53.110836,88.000002 C 53.110836,41.958818 80,32 80,32 111.21823,33.93488 156.33632,50.060916 156.33632,88.000002 156.33632,125.93909 111.21823,142.06513 80,144 80,144 53.110836,134.04118 53.110836,88.000002 Z" clip-path="url(#clipPath881)"/><path id="path7" fill="#252525" stroke="#090909" stroke-width="37.259" d="M188 128c0 80-69.756 119.362-69.756 119.362C64 244 8.638 193.922 8.638 128S64 12 118.244 8.638C118.244 8.638 188 48 188 128z" clip-path="url(#a)" transform="matrix(.52122 0 0 .52122 24.17 21.284)" style="stroke-width:37.25873911;stroke-miterlimit:4;stroke-dasharray:none;fill:#273424;fill-opacity:1"/><g id="g848" transform="matrix(1,0,0,-1,0,174.21354)"><g id="g855"><g id="g844" transform="matrix(1,0,0,-1,0,172.42708)"><path style="fill:none;stroke:#090909;stroke-width:8;stroke-linecap:butt;stroke-linejoin:miter;stroke-miterlimit:4;stroke-dasharray:none;stroke-opacity:1" id="path835" d="m 48,46.21354 c 36,20 100,23.999998 100,23.999998"/></g><path id="path846" d="m 48,46.21354 c 36,20 100,23.999998 100,23.999998" style="fill:none;stroke:#090909;stroke-width:8;stroke-linecap:butt;stroke-linejoin:miter;stroke-miterlimit:4;stroke-dasharray:none;stroke-opacity:1"/></g></g><path style="fill:#790000;stroke:#0a0a0a;stroke-width:5.328866;fill-opacity:1" id="path885" d="M 98.177572,87.998937 90,100 c 0,0 -18,4 -32,10 L 68,87.998937 58,66 c 14,6 32,10 32,10 z"/><path style="fill:#273424;fill-opacity:1;stroke:#090909;stroke-width:9.5;stroke-linecap:butt;stroke-linejoin:miter;stroke-miterlimit:4;stroke-dasharray:none;stroke-opacity:1" id="path895" d="M 114,68 100,38 c 40,8 56,34 56,34 z"/><path id="path897" d="m 114,108 -14,30 c 40,-8 56,-34 56,-34 z" style="fill:#273424;fill-opacity:1;stroke:#090909;stroke-width:9.5;stroke-linecap:butt;stroke-linejoin:miter;stroke-miterlimit:4;stroke-dasharray:none;stroke-opacity:1"/><g id="g893"><path id="path887" d="m 116,68 c 0,0 -36,-4 -72,-20 0,0 12,-16 36,-22 0,0 28,16 36,42 z" style="fill:#4b6446;fill-opacity:1;stroke:#090909;stroke-width:9.5;stroke-linecap:butt;stroke-linejoin:miter;stroke-miterlimit:4;stroke-dasharray:none;stroke-opacity:1"/><path style="fill:#4b6446;fill-opacity:1;stroke:#090909;stroke-width:9.5;stroke-linecap:butt;stroke-linejoin:miter;stroke-miterlimit:4;stroke-dasharray:none;stroke-opacity:1" id="path889" d="m 116,108 c 0,0 -36,4 -72,20 0,0 12,16 36,22 0,0 28,-16 36,-42 z"/></g></svg>