<svg xmlns="http://www.w3.org/2000/svg" xmlns:svg="http://www.w3.org/2000/svg" id="svg31" width="176" height="176" version="1.1"><metadata id="metadata35"/><defs id="defs25"><clipPath id="e"><path id="path2" fill="#252525" fill-opacity=".601" stroke-width="12.537" d="M188 128c0 80-69.756 119.362-69.756 119.362C64 244 8.638 193.922 8.638 128S64 12 118.244 8.638C118.244 8.638 188 48 188 128z"/></clipPath></defs><path id="path27" d="m 188,128 c 0,80 -69.756,119.362 -69.756,119.362 C 64,244 8.638,193.922 8.638,128 8.638,62.078 64,12 118.244,8.638 118.244,8.638 188,48 188,128 Z" clip-path="url(#e)" transform="matrix(0.52122,0,0,0.52122,24.170001,21.284)" style="fill:#2d2d2d;stroke:#090909;stroke-width:37.25899887"/><path style="fill:#fff00f;fill-opacity:1;stroke:#090909;stroke-width:6;stroke-linecap:butt;stroke-linejoin:miter;stroke-miterlimit:4;stroke-dasharray:none;stroke-opacity:1;paint-order:normal" id="rect4687" d="m 51.57454,96 h 12.98479 4.795327 A 18.04554,18.04554 0 0 0 86.187966,107.55401 18.04554,18.04554 0 0 0 104.23438,89.507605 18.04554,18.04554 0 0 0 86.187966,71.461202 18.04554,18.04554 0 0 0 69.37368,83.015209 H 64.55933 V 65.702155 L 51.57454,78.686946 v 4.328263 z" clip-path="none"/></svg>